{"title":"What History Forgot S01E04 Secret Weapons DSR EN-SUB x264-W4F","uid":12090455,"size":382255586,"categoryP":"video","categoryS":"tv_shows","magnet":"?xt=urn:btih:a2499d076a1411537dfecf6dc025cc55cf56be9d&amp;dn=What+History+Forgot+S01E04+Secret+Weapons+DSR+EN-SUB+x264-W4F&amp;tr=udp%3A%2F%2Ftracker.openbittorrent.com%3A80&amp;tr=udp%3A%2F%2Fopen.demonii.com%3A1337&amp;tr=udp%3A%2F%2Ftracker.coppersurfer.tk%3A6969&amp;tr=udp%3A%2F%2Fexodus.desync.com%3A6969","seeders":0,"leechers":0,"uploader":"Mulva1989","files":2,"time":1436030122,"description":"What History Forgot S01E04 Secret Weapons DSR EN-SUB x264-W4F\n\nWe know that the U.S. and Soviets went to extreme lengths to win the cold war, but few people know about a top secret project by the US government to bury nuclear missiles under the ice in Greenland within striking distance of the USSR! There was another top secret project during the Vietnam War...the U.S. tried to weaponize the weather to beat the Vietcong. And during WWII, the U.S. military fought the Germans not just with guns and ammo, but with magic tricks and inflatable tanks. Plus, our best defense in the cold war wasn't a nuclear missile... it was a double agent. Moniaci finds the stories of some of the incredible plots, ploys and people behind America's secret weapons.\n\nScreens @ &lt;a href=&quot;\nhttps://yuq.me/users/50/321/wVz5D6OB3A.jpg&quot; rel=&quot;nofollow&quot; target=&quot;_NEW&quot;&gt;\nhttps://yuq.me/users/50/321/wVz5D6OB3A.jpg&lt;/a&gt; &lt;a href=&quot;\nhttps://yuq.me/users/50/321/8PA6jRYK7g.jpg&quot; rel=&quot;nofollow&quot; target=&quot;_NEW&quot;&gt;\nhttps://yuq.me/users/50/321/8PA6jRYK7g.jpg&lt;/a&gt;\n\nFormat : MPEG-4\nFormat profile : Base Media\nCodec ID : isom\nFile size : 365 MiB\nDuration : 44mn 33s\nOverall bit rate mode : Variable\nOverall bit rate : 1 144 Kbps\nEncoded date : UTC 2015-06-25 20:17:24\nTagged date : UTC 2015-06-25 20:17:24\n\nVideo\nID : 1\nFormat : AVC\nFormat/Info : Advanced Video Codec\nFormat profile : &lt;a class=&quot;__cf_email__&quot; href=&quot;/cdn-cgi/l/email-protection&quot; data-cfemail=&quot;96defff1fed6daa5b8a7&quot;&gt;[email&amp;#160;protected]&lt;/a&gt;&lt;script data-cfhash='f9e31' type=&quot;text/javascript&quot;&gt;\n/* &lt;![CDATA[ */!function(){try{var t=&quot;currentScript&quot;in document?document.currentScript:function(){for(var t=document.getElementsByTagName(&quot;script&quot;),e=t.length;e--;)if(t[e].getAttribute(&quot;data-cfhash&quot;))return t[e]}();if(t&amp;&amp;t.previousSibling){var e,r,n,i,c=t.previousSibling,a=c.getAttribute(&quot;data-cfemail&quot;);if(a){for(e=&quot;&quot;,r=parseInt(a.substr(0,2),16),n=2;a.length-n;n+=2)i=parseInt(a.substr(n,2),16)^r,e+=String.fromCharCode(i);e=document.createTextNode(e),c.parentNode.replaceChild(e,c)}t.parentNode.removeChild(t);}}catch(u){}}()/* ]]&gt; */&lt;/script&gt;\nFormat settings, CABAC : Yes\nFormat settings, ReFrames : 5 frames\nCodec ID : avc1\nCodec ID/Info : Advanced Video Coding\nDuration : 44mn 32s\nBit rate : 1 009 Kbps\nMaximum bit rate : 4 782 Kbps\nWidth : 640 pixels\nHeight : 358 pixels\nDisplay aspect ratio : 16:9\nFrame rate mode : Constant\nFrame rate : 29.970 fps\nColor space : YUV\nChroma subsampling : 4:2:0\nBit depth : 8 bits\nScan type : Progressive\nBits/(Pixel*Frame) : 0.147\nStream size : 322 MiB (88%)\nWriting library : x264 core 146 r2538 121396c\nEncoding settings : cabac=1 / ref=5 / deblock=1:-1:-1 / analyse=0x3:0x113 / me=umh / subme=8 / psy=1 / psy_rd=1.00:0.15 / mixed_ref=1 / me_range=16 / chroma_me=1 / trellis=1 / 8x8dct=1 / cqm=0 / deadzone=21,11 / fast_pskip=1 / chroma_qp_offset=-3 / threads=12 / lookahead_threads=2 / sliced_threads=0 / nr=0 / decimate=1 / interlaced=0 / bluray_compat=0 / constrained_intra=0 / bframes=3 / b_pyramid=2 / b_adapt=2 / b_bias=0 / direct=3 / weightb=1 / open_gop=0 / weightp=2 / keyint=250 / keyint_min=25 / scenecut=40 / intra_refresh=0 / rc_lookahead=50 / rc=crf / mbtree=1 / crf=21.0 / qcomp=0.60 / qpmin=0 / qpmax=69 / qpstep=4 / ip_ratio=1.40 / aq=1:1.00\nEncoded date : UTC 2015-06-25 20:17:24\nTagged date : UTC 2015-06-25 20:17:27\n\nAudio\nID : 2\nFormat : AAC\nFormat/Info : Advanced Audio Codec\nFormat profile : LC\nCodec ID : 40\nDuration : 44mn 32s\nBit rate mode : Variable\nBit rate : 132 Kbps\nMaximum bit rate : 169 Kbps\nChannel(s) : 2 channels\nChannel positions : Front: L R\nSampling rate : 48.0 KHz\nCompression mode : Lossy\nStream size : 41.5 MiB (11%)\nLanguage : English\nEncoded date : UTC 2015-06-25 20:17:27\nTagged date : UTC 2015-06-25 20:17:27\n\nText\nID : 3\nFormat : Timed Text\nCodec ID : tx3g\nDuration : 44mn 33s\nBit rate mode : Variable\nBit rate : 151 bps\nStream size : 49.1 KiB (0%)\nLanguage : English\nEncoded date : UTC 2015-06-25 20:17:27\nTagged date : UTC 2015-06-25 20:17:27","torrent":{"xt":"urn:btih:a2499d076a1411537dfecf6dc025cc55cf56be9d","amp;dn":"What+History+Forgot+S01E04+Secret+Weapons+DSR+EN-SUB+x264-W4F","amp;tr":["udp%3A%2F%2Ftracker.openbittorrent.com%3A80","udp%3A%2F%2Fopen.demonii.com%3A1337","udp%3A%2F%2Ftracker.coppersurfer.tk%3A6969","udp%3A%2F%2Fexodus.desync.com%3A6969"],"infoHash":"a2499d076a1411537dfecf6dc025cc55cf56be9d","infoHashBuffer":{"type":"Buffer","data":[162,73,157,7,106,20,17,83,125,254,207,109,192,37,204,85,207,86,190,157]},"announce":[],"urlList":[]}}